<svg width="340" height="340" viewBox="0 0 340 340" fill="none" xmlns="http://www.w3.org/2000/svg">
<path d="M93.8957 169.785L93.3879 169.788L93.8957 169.79C51.9797 169.79 18 203.77 18 245.686H93.8941L93.8941 321.575C135.784 321.575 169.747 287.638 169.788 245.758C169.829 287.638 203.792 321.575 245.682 321.575V245.686L321.575 245.686C321.575 203.77 287.596 169.79 245.68 169.79L246.187 169.788L245.68 169.785C287.596 169.785 321.575 135.806 321.575 93.8895L245.682 93.8895L245.682 18C203.79 18 169.825 51.9418 169.788 93.8253C169.751 51.9418 135.786 18 93.8941 18L93.8941 93.8896L18 93.8895C18 135.806 51.9797 169.785 93.8957 169.785Z" stroke="black" stroke-width="35.4171"/>
</svg>
